<svg aria-hidden="true" style="position: absolute; width: 0; height: 0; overflow: hidden;" version="1.1" xmlns="http://www.w3.org/2000/svg" xmlns:xlink="http://www.w3.org/1999/xlink">
<defs>
<symbol id="icon-close-exp" viewBox="0 0 32 32">
<path d="M31.974 5.272c-0.013-0.189-0.006-0.371-0.039-0.56-0.046-0.371-0.13-0.736-0.254-1.094-0.495-1.42-1.602-2.598-2.989-3.165-0.176-0.065-0.352-0.137-0.527-0.189-0.189-0.046-0.352-0.098-0.56-0.13l-0.313-0.046-0.156-0.020-0.111-0.006-0.319-0.020h-0.169l-1.7 0.006-3.399 0.006c-4.532 0.006-9.058 0.006-13.577-0.033-0.801-0.006-2.064 0.221-2.461 0.378-0.788 0.319 0.234 0.586 1.765 0.788 5.047 0.671 11.168 0.964 17.4 1.042l1.407 0.020 0.658 0.006 0.352 0.020c0.098 0.013 0.156 0.033 0.241 0.039 0.684 0.137 1.348 0.534 1.791 1.087 0.449 0.56 0.684 1.257 0.671 1.967l-0.039 2.813c-0.046 3.751-0.085 7.502-0.13 11.259-0.013 1.875-0.026 3.757-0.039 5.633l-0.006 1.407c0.006 0.527-0.020 0.82-0.098 1.094-0.156 0.632-0.547 1.205-1.081 1.582-0.267 0.189-0.56 0.332-0.873 0.423-0.156 0.046-0.319 0.072-0.482 0.098l-0.247 0.013c-0.091 0.006-0.228 0-0.339 0.006l-2.826 0.013c-1.882 0.020-3.77 0.039-5.652 0.059-1.869-0.026-3.731-0.046-5.6-0.072l-7.43-0.065c-0.052 0-0.078-0.006-0.098-0.013l-0.072-0.013c-0.085-0.006-0.215-0.052-0.339-0.078-0.117-0.046-0.241-0.078-0.352-0.137-0.456-0.208-0.847-0.553-1.127-0.97-0.273-0.423-0.436-0.905-0.449-1.407l-0.006-4.382c-0.006-2.956-0.026-5.913-0.059-8.863-0.020-1.478-0.039-2.95-0.059-4.422l-0.052-2.207-0.020-1.107-0.013-0.553v-0.098c0-0.006 0-0.006 0-0.006l0.006-0.117c0.006-0.085 0-0.202 0.013-0.26s0.020-0.124 0.026-0.182c0.006-0.059 0.033-0.143 0.039-0.215 0.013-0.072 0.033-0.143 0.059-0.215s0.039-0.143 0.065-0.208c0.098-0.273 0.247-0.521 0.397-0.749 0.319-0.443 0.71-0.788 1.081-1.029 0.736-0.469 1.354-0.612 1.237-0.925-0.052-0.124-0.247-0.267-0.586-0.326-0.339-0.078-0.827-0.065-1.4 0.117-0.567 0.182-1.237 0.547-1.791 1.185-0.56 0.632-1.003 1.511-1.094 2.592l-0.020 0.287-0.007 0.332-0.013 0.58-0.033 1.159c-0.013 0.775-0.026 1.55-0.039 2.325-0.026 1.55-0.052 3.1-0.072 4.649-0.046 3.1-0.072 6.206-0.065 9.305l0.006 1.869 0.006 0.938c0 0.163 0 0.3 0.007 0.482 0.013 0.195 0.006 0.391 0.046 0.586 0.104 0.781 0.391 1.537 0.834 2.188 0.443 0.645 1.035 1.192 1.719 1.576 0.169 0.098 0.352 0.176 0.527 0.26 0.182 0.065 0.365 0.143 0.554 0.195 0.195 0.046 0.365 0.104 0.593 0.13l0.319 0.046c0.111 0.013 0.163 0.006 0.247 0.013l0.287 0.013h0.234l0.469-0.006 0.931-0.006 3.738-0.033c4.982-0.046 9.963-0.098 14.945-0.143l0.84 0.033c0.143 0.006 0.267 0.013 0.436 0.013 0.169-0.006 0.339 0 0.508-0.020 0.684-0.059 1.354-0.267 1.96-0.606 1.211-0.671 2.142-1.882 2.455-3.269 0.176-0.86 0.117-1.309 0.15-1.895l0.039-1.687c0.020-1.127 0.039-2.253 0.059-3.38 0.065-4.506 0.091-9.025 0.091-13.558v-1.914c-0.020-0.065-0.020-0.13-0.026-0.234z"></path>
<path d="M9.593 20.568c-0.085 0.078-0.052 0.365 0.020 0.521 0.143 0.306 0.436 0.391 0.736 0.378 0.983-0.033 1.81-0.449 2.501-1.022 1.029-0.866 2.090-1.7 3.074-2.618 0.007 0.006 0.020 0.013 0.026 0.020 0.169 0.208 0.339 0.417 0.514 0.619 1.12 1.276 2.292 2.494 3.673 3.497 0.391 0.287 0.886 0.358 1.276-0.091 0.358-0.404 0.397-0.925 0.098-1.315-0.547-0.703-1.087-1.42-1.726-2.038-0.781-0.755-1.608-1.465-2.429-2.181 0.078-0.091 0.156-0.176 0.228-0.267 0.208-0.169 0.417-0.339 0.619-0.514 1.276-1.12 2.494-2.292 3.497-3.673 0.287-0.391 0.358-0.886-0.091-1.276-0.404-0.358-0.925-0.397-1.315-0.098-0.703 0.547-1.42 1.087-2.038 1.726-0.781 0.807-1.511 1.654-2.247 2.501-1.289-1.836-3.087-3.217-4.565-4.884-0.078-0.085-0.365-0.052-0.521 0.020-0.306 0.143-0.391 0.436-0.378 0.736 0.033 0.983 0.449 1.81 1.022 2.501 0.873 1.035 1.713 2.103 2.637 3.093-1.706 1.27-3.028 2.963-4.61 4.369z"></path>
</symbol>
</defs>
</svg>
