<svg aria-hidden="true" style="position: absolute; width: 0; height: 0; overflow: hidden;" version="1.1" xmlns="http://www.w3.org/2000/svg" xmlns:xlink="http://www.w3.org/1999/xlink">
<defs>
<symbol id="icon-close_icon" viewBox="0 0 32 32">
<path d="M27.725 24.194l-8.2-8.231 8.219-8.125c0.337-0.338 0.337-0.888 0-1.225l-2.337-2.35c-0.163-0.162-0.381-0.25-0.613-0.25s-0.45 0.094-0.613 0.25l-8.181 8.1-8.194-8.094c-0.162-0.162-0.381-0.25-0.612-0.25s-0.45 0.094-0.612 0.25l-2.331 2.35c-0.337 0.338-0.337 0.888 0 1.225l8.219 8.125-8.194 8.225c-0.162 0.163-0.256 0.381-0.256 0.613s0.088 0.45 0.256 0.613l2.338 2.35c0.169 0.169 0.388 0.256 0.612 0.256 0.219 0 0.444-0.081 0.612-0.256l8.162-8.2 8.169 8.194c0.169 0.169 0.387 0.256 0.613 0.256 0.219 0 0.444-0.081 0.613-0.256l2.337-2.35c0.163-0.163 0.256-0.381 0.256-0.613-0.006-0.225-0.1-0.444-0.262-0.606z"></path>
</symbol>
<symbol id="icon-linkedin" viewBox="0 0 32 32">
<path d="M7.226 32v-21.058h-6.503v21.058h6.503zM3.923 8.052c2.065 0 3.819-1.755 3.819-3.819-0.288-1.849-1.869-3.247-3.776-3.247-1.871 0-3.427 1.345-3.756 3.121l-0.004 0.024c0 2.065 1.652 3.819 3.716 3.819zM31.794 32v-11.561c0-5.677-1.239-10.013-7.845-10.013-3.2 0-5.368 1.755-6.194 3.406h-0.206v-2.89h-6.194v21.058h6.503v-10.426c0-2.787 0.516-5.368 3.923-5.368s3.51 3.097 3.51 5.574v10.219h6.4z"></path>
</symbol>
<symbol id="icon-youtube" viewBox="0 0 45 32">
<path d="M43.615 5.926c-0.474-2.015-2.015-3.556-3.793-4.030-3.556-1.067-17.304-1.067-17.304-1.067s-13.867 0.119-17.304 1.067c-1.956 0.495-3.478 1.977-4.020 3.872l-0.010 0.039c-0.948 3.437-0.948 10.667-0.948 10.667s0 7.23 0.948 10.667c0.509 1.92 1.991 3.402 3.873 3.902l0.038 0.009c3.556 0.948 17.304 0.948 17.304 0.948s13.748 0 17.304-0.948c1.845-0.525 3.268-1.948 3.783-3.754l0.009-0.038c1.067-3.556 1.067-10.667 1.067-10.667s0-7.348-1.067-10.667zM18.015 22.993v-13.037l11.496 6.4-11.496 6.637z"></path>
</symbol>
<symbol id="icon-twitter" viewBox="0 0 37 32">
<path d="M33.493 8.32c1.387-1.067 2.773-2.453 3.733-3.947-1.28 0.533-2.773 1.067-4.267 1.067 1.517-0.953 2.65-2.398 3.186-4.107l0.014-0.053c-1.28 0.853-3.093 1.493-4.587 1.92-1.399-1.447-3.357-2.346-5.525-2.346-4.242 0-7.68 3.438-7.68 7.68 0 0.605 0.070 1.193 0.202 1.758l-0.010-0.052c-6.4-0.427-12.16-3.52-16-8.107-0.605 1.055-0.962 2.319-0.962 3.666 0 0.061 0.001 0.122 0.002 0.183l-0-0.009c-0.001 0.038-0.001 0.083-0.001 0.129 0 2.618 1.347 4.921 3.386 6.254l0.029 0.018c-1.173 0-2.453-0.32-3.413-0.96 0 3.84 2.56 6.827 6.080 7.573-0.566 0.169-1.222 0.284-1.899 0.319l-0.021 0.001-1.6-0.107c0.96 2.987 3.84 5.227 7.147 5.333-2.667 2.027-5.867 3.2-9.493 3.2h-1.813c3.195 2.012 7.082 3.206 11.247 3.206 0.171 0 0.342-0.002 0.512-0.006l-0.025 0c0.063 0.001 0.139 0.001 0.214 0.001 11.9 0 21.547-9.647 21.547-21.547 0-0.038-0-0.076-0-0.114l0 0.006v-1.067z"></path>
</symbol>
<symbol id="icon-facebook" viewBox="0 0 32 32">
<path d="M31.543 16.366c0-0.023 0-0.050 0-0.077 0-8.584-6.959-15.543-15.543-15.543s-15.543 6.959-15.543 15.543c0 7.712 5.617 14.113 12.984 15.333l0.090 0.012v-10.789h-3.931v-4.571h3.931v-3.291c0-3.931 2.377-6.034 5.851-6.034 1.829 0 3.474 0.274 3.474 0.274v3.749h-1.829c-1.92 0-2.56 1.189-2.56 2.377v3.109h4.297l-0.64 4.48h-3.657v10.789c7.431-1.228 13.035-7.588 13.074-15.264l0-0.004z"></path>
</symbol>
</defs>
</svg>
